<svg width="64" height="64" viewBox="0 0 64 64" fill="none" xmlns="http://www.w3.org/2000/svg">
<g clip-path="url(#clip0_12_2)">
<mask id="mask0_12_2" style="mask-type:luminance" maskUnits="userSpaceOnUse" x="0" y="0" width="64" height="64">
<path d="M0 0H64V64H0V0Z" fill="white"/>
</mask>
<g mask="url(#mask0_12_2)">
<path d="M44 0H20C8.9543 0 0 8.9543 0 20V44C0 55.0457 8.9543 64 20 64H44C55.0457 64 64 55.0457 64 44V20C64 8.9543 55.0457 0 44 0Z" fill="#EA2264"/>
<path fill-rule="evenodd" clip-rule="evenodd" d="M31.9605 43.2541C31.5717 43.2613 28.3885 43.3381 25.9669 44.0389C23.3845 44.7869 21.4532 44.7005 20.4509 44.7397C19.4485 44.7797 14.8973 44.6205 11.9269 42.6165C8.95645 40.6133 6.82525 36.7125 6.92525 32.5013C7.02525 28.2909 9.54125 24.1853 16.2157 21.4709C21.0893 19.4893 26.7381 18.8301 31.9997 18.8301C37.2605 18.8301 42.9093 19.4893 47.7829 21.4709C54.4573 24.1853 56.9741 28.2909 57.0741 32.5013C57.1741 36.7125 55.0429 40.6133 52.0717 42.6165C49.1013 44.6205 44.5509 44.7797 43.5477 44.7397C42.5453 44.7005 40.6149 44.7869 38.0325 44.0389C35.4493 43.2917 31.9997 43.2541 31.9997 43.2541H31.9605Z" fill="white"/>
<path d="M20.3054 37.3148C18.0235 36.6433 16.3718 35.2303 15.3048 33.103C14.5433 31.5854 14.8778 30.0829 16.0806 29.3445C17.2986 28.5961 18.6875 29.0281 19.6188 30.4451C21.0517 32.6228 22.294 33.0499 24.7282 32.2037C26.4194 31.6153 27.8613 32.1375 28.2944 33.6058C28.7778 35.2428 28.1003 36.3651 26.6441 37.0427C24.5499 38.0173 22.4212 38.1221 20.3054 37.3148Z" fill="#EA2264"/>
<path d="M44.7392 36.9187C42.5409 37.8934 40.3742 37.8987 38.2204 36.9849C36.6838 36.3331 36.012 34.981 36.4926 33.6423C36.9788 32.286 38.3313 31.7104 39.938 32.1758C42.4088 32.8902 43.6438 32.4061 45.0187 30.1861C45.9737 28.6434 47.4236 28.1015 48.6733 28.9292C50.067 29.8518 50.2349 31.1394 49.5188 32.5969C48.4891 34.693 46.8922 36.1544 44.7392 36.9187Z" fill="#EA2264"/>
</g>
</g>
<defs>
<clipPath id="clip0_12_2">
<rect width="64" height="64" fill="white"/>
</clipPath>
</defs>
</svg>
