<svg width="415" height="64" viewBox="0 0 415 64" fill="none" xmlns="http://www.w3.org/2000/svg">
<g clip-path="url(#clip0_12_13)">
<mask id="mask0_12_13" style="mask-type:luminance" maskUnits="userSpaceOnUse" x="0" y="0" width="415" height="64">
<path d="M415 0H0V64H415V0Z" fill="white"/>
</mask>
<g mask="url(#mask0_12_13)">
<mask id="mask1_12_13" style="mask-type:luminance" maskUnits="userSpaceOnUse" x="0" y="0" width="64" height="64">
<path d="M0 0H64V64H0V0Z" fill="white"/>
</mask>
<g mask="url(#mask1_12_13)">
<path d="M44 0H20C8.9543 0 0 8.9543 0 20V44C0 55.0457 8.9543 64 20 64H44C55.0457 64 64 55.0457 64 44V20C64 8.9543 55.0457 0 44 0Z" fill="#EA2264"/>
<path fill-rule="evenodd" clip-rule="evenodd" d="M31.9605 43.2541C31.5717 43.2613 28.3885 43.3381 25.9669 44.0389C23.3845 44.7869 21.4532 44.7005 20.4509 44.7397C19.4485 44.7797 14.8973 44.6205 11.9269 42.6165C8.95645 40.6133 6.82525 36.7125 6.92525 32.5013C7.02525 28.2909 9.54125 24.1853 16.2157 21.4709C21.0893 19.4893 26.7381 18.8301 31.9997 18.8301C37.2605 18.8301 42.9093 19.4893 47.7829 21.4709C54.4573 24.1853 56.9741 28.2909 57.0741 32.5013C57.1741 36.7125 55.0429 40.6133 52.0717 42.6165C49.1013 44.6205 44.5509 44.7797 43.5477 44.7397C42.5453 44.7005 40.6149 44.7869 38.0325 44.0389C35.4493 43.2917 31.9997 43.2541 31.9997 43.2541H31.9605Z" fill="white"/>
<path d="M20.3054 37.3148C18.0235 36.6433 16.3718 35.2303 15.3048 33.103C14.5433 31.5854 14.8778 30.0829 16.0806 29.3445C17.2986 28.5961 18.6875 29.0281 19.6188 30.4451C21.0517 32.6228 22.294 33.0499 24.7282 32.2037C26.4194 31.6153 27.8613 32.1375 28.2944 33.6058C28.7778 35.2428 28.1003 36.3651 26.6441 37.0427C24.5499 38.0173 22.4212 38.1221 20.3054 37.3148Z" fill="#EA2264"/>
<path d="M44.7392 36.9187C42.5409 37.8934 40.3742 37.8987 38.2204 36.9849C36.6838 36.3331 36.012 34.981 36.4926 33.6423C36.9788 32.286 38.3313 31.7104 39.938 32.1758C42.4088 32.8902 43.6438 32.4061 45.0187 30.1861C45.9737 28.6434 47.4236 28.1015 48.6733 28.9292C50.067 29.8518 50.2349 31.1394 49.5188 32.5969C48.4891 34.693 46.8922 36.1544 44.7392 36.9187Z" fill="#EA2264"/>
</g>
<path d="M102.368 10.8C106.064 10.8 109.144 12.032 111.608 14.496C114.109 16.96 115.36 20.0213 115.36 23.68C115.36 27.3013 114.109 30.3627 111.608 32.864C109.144 35.328 106.064 36.56 102.368 36.56H94.36V50H87.92V10.8H102.368ZM102.368 30.512C104.272 30.512 105.84 29.8773 107.072 28.608C108.304 27.3013 108.92 25.6587 108.92 23.68C108.92 21.7013 108.304 20.0773 107.072 18.808C105.84 17.5013 104.272 16.848 102.368 16.848H94.36V30.512H102.368ZM126.271 16.68C125.525 17.4267 124.629 17.8 123.583 17.8C122.538 17.8 121.623 17.4267 120.839 16.68C120.093 15.896 119.719 14.9813 119.719 13.936C119.719 12.8907 120.093 11.9947 120.839 11.248C121.586 10.464 122.501 10.072 123.583 10.072C124.666 10.072 125.581 10.464 126.327 11.248C127.074 11.9947 127.447 12.8907 127.447 13.936C127.447 14.9813 127.055 15.896 126.271 16.68ZM120.559 50V22H126.607V50H120.559ZM139.678 26.704C141.208 23.232 144.083 21.496 148.302 21.496V28.048C145.987 27.8987 143.971 28.4587 142.254 29.728C140.536 30.96 139.678 33.0133 139.678 35.888V50H133.63V22H139.678V26.704ZM173.634 22H179.682V50H173.634V45.968C171.356 49.1413 168.09 50.728 163.834 50.728C159.988 50.728 156.703 49.3093 153.978 46.472C151.252 43.5973 149.89 40.1067 149.89 36C149.89 31.856 151.252 28.3653 153.978 25.528C156.703 22.6907 159.988 21.272 163.834 21.272C168.09 21.272 171.356 22.84 173.634 25.976V22ZM158.458 42.44C160.138 44.12 162.247 44.96 164.786 44.96C167.324 44.96 169.434 44.12 171.114 42.44C172.794 40.7227 173.634 38.576 173.634 36C173.634 33.424 172.794 31.296 171.114 29.616C169.434 27.8987 167.324 27.04 164.786 27.04C162.247 27.04 160.138 27.8987 158.458 29.616C156.778 31.296 155.938 33.424 155.938 36C155.938 38.576 156.778 40.7227 158.458 42.44ZM202.355 27.824H195.411V41.264C195.411 42.4213 195.672 43.2613 196.195 43.784C196.718 44.2693 197.483 44.5493 198.491 44.624C199.536 44.6613 200.824 44.6427 202.355 44.568V50C197.726 50.56 194.403 50.168 192.387 48.824C190.371 47.4427 189.363 44.9227 189.363 41.264V27.824H184.211V22H189.363V15.952L195.411 14.16V22H202.355V27.824ZM211.452 38.576C211.9 40.704 212.927 42.3467 214.532 43.504C216.137 44.624 218.097 45.184 220.412 45.184C223.623 45.184 226.031 44.0267 227.636 41.712L232.62 44.624C229.857 48.6933 225.769 50.728 220.356 50.728C215.801 50.728 212.124 49.3467 209.324 46.584C206.524 43.784 205.124 40.256 205.124 36C205.124 31.8187 206.505 28.328 209.268 25.528C212.031 22.6907 215.577 21.272 219.908 21.272C224.015 21.272 227.375 22.7093 229.988 25.584C232.639 28.4587 233.964 31.9493 233.964 36.056C233.964 36.6907 233.889 37.5307 233.74 38.576H211.452ZM211.396 33.648H227.86C227.449 31.3707 226.497 29.6533 225.004 28.496C223.548 27.3387 221.831 26.76 219.852 26.76C217.612 26.76 215.745 27.376 214.252 28.608C212.759 29.84 211.807 31.52 211.396 33.648ZM239.678 10.8H246.118V50H239.678V10.8ZM277.023 29.672C278.741 30.568 280.085 31.8 281.055 33.368C282.026 34.936 282.511 36.7467 282.511 38.8C282.511 42.0107 281.373 44.68 279.095 46.808C276.818 48.936 274.037 50 270.751 50H253.951V10.8H269.519C272.73 10.8 275.437 11.8453 277.639 13.936C279.879 15.9893 280.999 18.5653 280.999 21.664C280.999 25.0613 279.674 27.7307 277.023 29.672ZM269.519 16.848H260.391V27.152H269.519C270.938 27.152 272.133 26.6667 273.103 25.696C274.074 24.688 274.559 23.456 274.559 22C274.559 20.544 274.074 19.3307 273.103 18.36C272.133 17.352 270.938 16.848 269.519 16.848ZM270.751 43.952C272.245 43.952 273.495 43.4293 274.503 42.384C275.549 41.3013 276.071 39.9947 276.071 38.464C276.071 36.9333 275.549 35.6453 274.503 34.6C273.495 33.5173 272.245 32.976 270.751 32.976H260.391V43.952H270.751ZM317.531 10.8C322.907 10.8 327.368 12.6853 330.915 16.456C334.499 20.2267 336.291 24.8747 336.291 30.4C336.291 35.888 334.499 40.536 330.915 44.344C327.368 48.1147 322.907 50 317.531 50H302.131V10.8H317.531ZM317.531 43.84C321.227 43.84 324.232 42.5707 326.547 40.032C328.899 37.4933 330.075 34.2827 330.075 30.4C330.075 26.48 328.899 23.2693 326.547 20.768C324.232 18.2293 321.227 16.96 317.531 16.96H308.571V43.84H317.531ZM354.986 50.728C350.88 50.728 347.389 49.3093 344.514 46.472C341.64 43.6347 340.202 40.144 340.202 36C340.202 31.856 341.64 28.3653 344.514 25.528C347.389 22.6907 350.88 21.272 354.986 21.272C359.13 21.272 362.621 22.6907 365.458 25.528C368.333 28.3653 369.77 31.856 369.77 36C369.77 40.144 368.333 43.6347 365.458 46.472C362.621 49.3093 359.13 50.728 354.986 50.728ZM348.77 42.328C350.45 44.008 352.522 44.848 354.986 44.848C357.45 44.848 359.522 44.008 361.202 42.328C362.882 40.648 363.722 38.5387 363.722 36C363.722 33.4613 362.882 31.352 361.202 29.672C359.522 27.992 357.45 27.152 354.986 27.152C352.522 27.152 350.45 27.992 348.77 29.672C347.09 31.352 346.25 33.4613 346.25 36C346.25 38.5387 347.09 40.648 348.77 42.328ZM381.14 16.68C380.393 17.4267 379.497 17.8 378.452 17.8C377.407 17.8 376.492 17.4267 375.708 16.68C374.961 15.896 374.588 14.9813 374.588 13.936C374.588 12.8907 374.961 11.9947 375.708 11.248C376.492 10.464 377.407 10.072 378.452 10.072C379.497 10.072 380.393 10.464 381.14 11.248C381.924 11.9947 382.316 12.8907 382.316 13.936C382.316 14.9813 381.924 15.896 381.14 16.68ZM375.428 51.12V22H381.476V51.12C381.476 58.8853 377.649 62.488 369.996 61.928V56.104C371.863 56.2907 373.225 55.992 374.084 55.208C374.98 54.424 375.428 53.0613 375.428 51.12ZM401.744 50.728C397.637 50.728 394.147 49.3093 391.272 46.472C388.397 43.6347 386.96 40.144 386.96 36C386.96 31.856 388.397 28.3653 391.272 25.528C394.147 22.6907 397.637 21.272 401.744 21.272C405.888 21.272 409.379 22.6907 412.216 25.528C415.091 28.3653 416.528 31.856 416.528 36C416.528 40.144 415.091 43.6347 412.216 46.472C409.379 49.3093 405.888 50.728 401.744 50.728ZM395.528 42.328C397.208 44.008 399.28 44.848 401.744 44.848C404.208 44.848 406.28 44.008 407.96 42.328C409.64 40.648 410.48 38.5387 410.48 36C410.48 33.4613 409.64 31.352 407.96 29.672C406.28 27.992 404.208 27.152 401.744 27.152C399.28 27.152 397.208 27.992 395.528 29.672C393.848 31.352 393.008 33.4613 393.008 36C393.008 38.5387 393.848 40.648 395.528 42.328Z" fill="black"/>
</g>
</g>
<defs>
<clipPath id="clip0_12_13">
<rect width="415" height="64" fill="white"/>
</clipPath>
</defs>
</svg>
