<svg width="329" height="53" viewBox="0 0 329 53" fill="none" xmlns="http://www.w3.org/2000/svg">
<g clip-path="url(#clip0_12_11)">
<path d="M14.448 0.728001C18.144 0.728001 21.224 1.96001 23.688 4.42401C26.1893 6.88801 27.44 9.94933 27.44 13.608C27.44 17.2293 26.1893 20.2906 23.688 22.792C21.224 25.256 18.144 26.488 14.448 26.488H6.44V39.928H0V0.728001H14.448ZM14.448 20.44C16.352 20.44 17.92 19.8053 19.152 18.536C20.384 17.2293 21 15.5866 21 13.608C21 11.6293 20.384 10.0053 19.152 8.736C17.92 7.42933 16.352 6.776 14.448 6.776H6.44V20.44H14.448ZM38.3513 6.608C37.6046 7.35466 36.7086 7.728 35.6633 7.728C34.6179 7.728 33.7033 7.35466 32.9193 6.608C32.1726 5.824 31.7993 4.90933 31.7993 3.864C31.7993 2.81866 32.1726 1.92266 32.9193 1.176C33.6659 0.392001 34.5806 0 35.6633 0C36.7459 0 37.6606 0.392001 38.4073 1.176C39.1539 1.92266 39.5273 2.81866 39.5273 3.864C39.5273 4.90933 39.1353 5.824 38.3513 6.608ZM32.6393 39.928V11.928H38.6873V39.928H32.6393ZM51.7576 16.632C53.2882 13.16 56.1629 11.424 60.3816 11.424V17.976C58.0669 17.8266 56.0509 18.3866 54.3336 19.656C52.6162 20.888 51.7576 22.9413 51.7576 25.816V39.928H45.7096V11.928H51.7576V16.632ZM85.7137 11.928H91.7617V39.928H85.7137V35.896C83.4364 39.0693 80.1697 40.656 75.9137 40.656C72.0684 40.656 68.783 39.2373 66.0577 36.4C63.3324 33.5253 61.9697 30.0346 61.9697 25.928C61.9697 21.784 63.3324 18.2933 66.0577 15.456C68.783 12.6186 72.0684 11.2 75.9137 11.2C80.1697 11.2 83.4364 12.768 85.7137 15.904V11.928ZM70.5377 32.368C72.2177 34.048 74.327 34.888 76.8657 34.888C79.4044 34.888 81.5137 34.048 83.1937 32.368C84.8737 30.6506 85.7137 28.504 85.7137 25.928C85.7137 23.352 84.8737 21.224 83.1937 19.544C81.5137 17.8266 79.4044 16.968 76.8657 16.968C74.327 16.968 72.2177 17.8266 70.5377 19.544C68.8577 21.224 68.0177 23.352 68.0177 25.928C68.0177 28.504 68.8577 30.6506 70.5377 32.368ZM114.435 17.752H107.491V31.192C107.491 32.3493 107.752 33.1893 108.275 33.712C108.798 34.1973 109.563 34.4773 110.571 34.552C111.616 34.5893 112.904 34.5706 114.435 34.496V39.928C109.806 40.488 106.483 40.096 104.467 38.752C102.451 37.3706 101.443 34.8506 101.443 31.192V17.752H96.2911V11.928H101.443V5.88L107.491 4.088V11.928H114.435V17.752ZM123.532 28.504C123.98 30.632 125.007 32.2746 126.612 33.432C128.217 34.552 130.177 35.112 132.492 35.112C135.703 35.112 138.111 33.9546 139.716 31.64L144.7 34.552C141.937 38.6213 137.849 40.656 132.436 40.656C127.881 40.656 124.204 39.2746 121.404 36.512C118.604 33.712 117.204 30.184 117.204 25.928C117.204 21.7466 118.585 18.256 121.348 15.456C124.111 12.6186 127.657 11.2 131.988 11.2C136.095 11.2 139.455 12.6373 142.068 15.512C144.719 18.3866 146.044 21.8773 146.044 25.984C146.044 26.6186 145.969 27.4586 145.82 28.504H123.532ZM123.476 23.576H139.94C139.529 21.2986 138.577 19.5813 137.084 18.424C135.628 17.2666 133.911 16.688 131.932 16.688C129.692 16.688 127.825 17.304 126.332 18.536C124.839 19.768 123.887 21.448 123.476 23.576ZM151.758 0.728001H158.198V39.928H151.758V0.728001ZM189.103 19.6C190.821 20.496 192.165 21.728 193.135 23.296C194.106 24.864 194.591 26.6746 194.591 28.728C194.591 31.9386 193.453 34.608 191.175 36.736C188.898 38.864 186.117 39.928 182.831 39.928H166.031V0.728001H181.599C184.81 0.728001 187.517 1.77333 189.719 3.864C191.959 5.91733 193.079 8.49333 193.079 11.592C193.079 14.9893 191.754 17.6586 189.103 19.6ZM181.599 6.776H172.471V17.08H181.599C183.018 17.08 184.213 16.5946 185.183 15.624C186.154 14.616 186.639 13.384 186.639 11.928C186.639 10.472 186.154 9.25866 185.183 8.288C184.213 7.28 183.018 6.776 181.599 6.776ZM182.831 33.88C184.325 33.88 185.575 33.3573 186.583 32.312C187.629 31.2293 188.151 29.9226 188.151 28.392C188.151 26.8613 187.629 25.5733 186.583 24.528C185.575 23.4453 184.325 22.904 182.831 22.904H172.471V33.88H182.831ZM229.611 0.728001C234.987 0.728001 239.448 2.61333 242.995 6.384C246.579 10.1546 248.371 14.8026 248.371 20.328C248.371 25.816 246.579 30.464 242.995 34.272C239.448 38.0426 234.987 39.928 229.611 39.928H214.211V0.728001H229.611ZM229.611 33.768C233.307 33.768 236.312 32.4986 238.627 29.96C240.979 27.4213 242.155 24.2106 242.155 20.328C242.155 16.408 240.979 13.1973 238.627 10.696C236.312 8.15733 233.307 6.888 229.611 6.888H220.651V33.768H229.611ZM267.066 40.656C262.96 40.656 259.469 39.2373 256.594 36.4C253.72 33.5626 252.282 30.072 252.282 25.928C252.282 21.784 253.72 18.2933 256.594 15.456C259.469 12.6186 262.96 11.2 267.066 11.2C271.21 11.2 274.701 12.6186 277.538 15.456C280.413 18.2933 281.85 21.784 281.85 25.928C281.85 30.072 280.413 33.5626 277.538 36.4C274.701 39.2373 271.21 40.656 267.066 40.656ZM260.85 32.256C262.53 33.936 264.602 34.776 267.066 34.776C269.53 34.776 271.602 33.936 273.282 32.256C274.962 30.576 275.802 28.4666 275.802 25.928C275.802 23.3893 274.962 21.28 273.282 19.6C271.602 17.92 269.53 17.08 267.066 17.08C264.602 17.08 262.53 17.92 260.85 19.6C259.17 21.28 258.33 23.3893 258.33 25.928C258.33 28.4666 259.17 30.576 260.85 32.256ZM293.22 6.608C292.473 7.35466 291.577 7.728 290.532 7.728C289.487 7.728 288.572 7.35466 287.788 6.608C287.041 5.824 286.668 4.90933 286.668 3.864C286.668 2.81866 287.041 1.92266 287.788 1.176C288.572 0.392001 289.487 0 290.532 0C291.577 0 292.473 0.392001 293.22 1.176C294.004 1.92266 294.396 2.81866 294.396 3.864C294.396 4.90933 294.004 5.824 293.22 6.608ZM287.508 41.048V11.928H293.556V41.048C293.556 48.8133 289.729 52.416 282.076 51.856V46.032C283.943 46.2186 285.305 45.92 286.164 45.136C287.06 44.352 287.508 42.9893 287.508 41.048ZM313.824 40.656C309.717 40.656 306.227 39.2373 303.352 36.4C300.477 33.5626 299.04 30.072 299.04 25.928C299.04 21.784 300.477 18.2933 303.352 15.456C306.227 12.6186 309.717 11.2 313.824 11.2C317.968 11.2 321.459 12.6186 324.296 15.456C327.171 18.2933 328.608 21.784 328.608 25.928C328.608 30.072 327.171 33.5626 324.296 36.4C321.459 39.2373 317.968 40.656 313.824 40.656ZM307.608 32.256C309.288 33.936 311.36 34.776 313.824 34.776C316.288 34.776 318.36 33.936 320.04 32.256C321.72 30.576 322.56 28.4666 322.56 25.928C322.56 23.3893 321.72 21.28 320.04 19.6C318.36 17.92 316.288 17.08 313.824 17.08C311.36 17.08 309.288 17.92 307.608 19.6C305.928 21.28 305.088 23.3893 305.088 25.928C305.088 28.4666 305.928 30.576 307.608 32.256Z" fill="black"/>
</g>
<defs>
<clipPath id="clip0_12_11">
<rect width="329" height="53" fill="white"/>
</clipPath>
</defs>
</svg>
